<svg width="120" height="100" viewBox="0 0 120 100" fill="none" xmlns="http://www.w3.org/2000/svg">
<rect width="120" height="100" fill="#1E1E1E"/>
<rect width="120" height="100" fill="white"/>
<rect x="17.5" y="10.5" width="82" height="11" fill="#2F9BA2" stroke="black"/>
<rect x="17.5" y="22.5" width="82" height="61" fill="#D9D9D9" stroke="black"/>
<circle cx="22.5" cy="16.5" r="2" fill="#D9D9D9" stroke="black"/>
<circle cx="30.5" cy="16.5" r="2" fill="#D9D9D9" stroke="black"/>
<circle cx="38.5" cy="16.5" r="2" fill="#D9D9D9" stroke="black"/>
<path d="M50.6136 18V13.6364H51.2614V14.3182H51.3182C51.4091 14.0852 51.5559 13.9044 51.7585 13.7756C51.9612 13.6449 52.2045 13.5795 52.4886 13.5795C52.7765 13.5795 53.0161 13.6449 53.2074 13.7756C53.4006 13.9044 53.5511 14.0852 53.6591 14.3182H53.7045C53.8163 14.0928 53.9839 13.9138 54.2074 13.7812C54.4309 13.6468 54.6989 13.5795 55.0114 13.5795C55.4015 13.5795 55.7206 13.7017 55.9688 13.946C56.2169 14.1884 56.3409 14.5663 56.3409 15.0795V18H55.6705V15.0795C55.6705 14.7576 55.5824 14.5275 55.4062 14.3892C55.2301 14.2509 55.0227 14.1818 54.7841 14.1818C54.4773 14.1818 54.2396 14.2746 54.071 14.4602C53.9025 14.6439 53.8182 14.8769 53.8182 15.1591V18H53.1364V15.0114C53.1364 14.7633 53.0559 14.5634 52.8949 14.4119C52.7339 14.2585 52.5265 14.1818 52.2727 14.1818C52.0985 14.1818 51.9356 14.2282 51.7841 14.321C51.6345 14.4138 51.5133 14.5426 51.4205 14.7074C51.3295 14.8703 51.2841 15.0587 51.2841 15.2727V18H50.6136ZM59.3963 18.0909C58.9759 18.0909 58.6132 17.9981 58.3082 17.8125C58.0052 17.625 57.7713 17.3636 57.6065 17.0284C57.4437 16.6913 57.3622 16.2992 57.3622 15.8523C57.3622 15.4053 57.4437 15.0114 57.6065 14.6705C57.7713 14.3277 58.0005 14.0606 58.294 13.8693C58.5895 13.6761 58.9342 13.5795 59.3281 13.5795C59.5554 13.5795 59.7798 13.6174 60.0014 13.6932C60.223 13.7689 60.4247 13.892 60.6065 14.0625C60.7884 14.2311 60.9332 14.4545 61.0412 14.733C61.1491 15.0114 61.2031 15.3542 61.2031 15.7614V16.0455H57.8395V15.4659H60.5213C60.5213 15.2197 60.4721 15 60.3736 14.8068C60.277 14.6136 60.1387 14.4612 59.9588 14.3494C59.7808 14.2377 59.5705 14.1818 59.3281 14.1818C59.0611 14.1818 58.83 14.2481 58.6349 14.3807C58.4418 14.5114 58.2931 14.6818 58.1889 14.892C58.0848 15.1023 58.0327 15.3277 58.0327 15.5682V15.9545C58.0327 16.2841 58.0895 16.5634 58.2031 16.7926C58.3187 17.0199 58.4787 17.1932 58.6832 17.3125C58.8878 17.4299 59.1255 17.4886 59.3963 17.4886C59.5724 17.4886 59.7315 17.464 59.8736 17.4148C60.0175 17.3636 60.1416 17.2879 60.2457 17.1875C60.3499 17.0852 60.4304 16.9583 60.4872 16.8068L61.1349 16.9886C61.0668 17.2083 60.9522 17.4015 60.7912 17.5682C60.6302 17.733 60.4313 17.8617 60.1946 17.9545C59.9579 18.0455 59.6918 18.0909 59.3963 18.0909ZM62.8935 15.375V18H62.223V13.6364H62.8707V14.3182H62.9276C63.0298 14.0966 63.1851 13.9186 63.3935 13.7841C63.6018 13.6477 63.8707 13.5795 64.2003 13.5795C64.4957 13.5795 64.7543 13.6402 64.9759 13.7614C65.1974 13.8807 65.3698 14.0625 65.4929 14.3068C65.616 14.5492 65.6776 14.8561 65.6776 15.2273V18H65.0071V15.2727C65.0071 14.9299 64.9181 14.6629 64.7401 14.4716C64.562 14.2784 64.3177 14.1818 64.0071 14.1818C63.7931 14.1818 63.6018 14.2282 63.4332 14.321C63.2666 14.4138 63.1349 14.5492 63.0384 14.7273C62.9418 14.9053 62.8935 15.1212 62.8935 15.375ZM69.6527 16.2159V13.6364H70.3232V18H69.6527V17.2614H69.6072C69.505 17.483 69.3459 17.6714 69.13 17.8267C68.9141 17.9801 68.6413 18.0568 68.3118 18.0568C68.0391 18.0568 67.7966 17.9972 67.5845 17.8778C67.3724 17.7566 67.2057 17.5748 67.0845 17.3324C66.9633 17.0881 66.9027 16.7803 66.9027 16.4091V13.6364H67.5732V16.3636C67.5732 16.6818 67.6622 16.9356 67.8402 17.125C68.0201 17.3144 68.2493 17.4091 68.5277 17.4091C68.6944 17.4091 68.8639 17.3665 69.0362 17.2812C69.2105 17.196 69.3563 17.0653 69.4737 16.8892C69.593 16.7131 69.6527 16.4886 69.6527 16.2159Z" fill="white"/>
<path d="M29 34.9318C28.7708 34.9318 28.5616 34.8759 28.3722 34.7642C28.1828 34.6506 28.0313 34.4991 27.9176 34.3097C27.8059 34.1203 27.75 33.911 27.75 33.6818C27.75 33.4508 27.8059 33.2415 27.9176 33.054C28.0313 32.8646 28.1828 32.714 28.3722 32.6023C28.5616 32.4886 28.7708 32.4318 29 32.4318C29.2311 32.4318 29.4403 32.4886 29.6278 32.6023C29.8172 32.714 29.9678 32.8646 30.0795 33.054C30.1932 33.2415 30.25 33.4508 30.25 33.6818C30.25 33.911 30.1932 34.1203 30.0795 34.3097C29.9678 34.4991 29.8172 34.6506 29.6278 34.7642C29.4403 34.8759 29.2311 34.9318 29 34.9318ZM36.2841 33.375V36H35.6136V30.1818H36.2841V32.3182H36.3409C36.4432 32.0928 36.5966 31.9138 36.8011 31.7812C37.0076 31.6468 37.2822 31.5795 37.625 31.5795C37.9223 31.5795 38.1828 31.6392 38.4062 31.7585C38.6297 31.8759 38.803 32.0568 38.9261 32.3011C39.0511 32.5436 39.1136 32.8523 39.1136 33.2273V36H38.4432V33.2727C38.4432 32.9261 38.3532 32.6581 38.1733 32.4688C37.9953 32.2775 37.7481 32.1818 37.4318 32.1818C37.2121 32.1818 37.0152 32.2282 36.8409 32.321C36.6686 32.4138 36.5322 32.5492 36.4318 32.7273C36.3333 32.9053 36.2841 33.1212 36.2841 33.375ZM42.2379 31.6364V32.2045H39.9766V31.6364H42.2379ZM40.6357 30.5909H41.3061V34.75C41.3061 34.9394 41.3336 35.0814 41.3885 35.1761C41.4453 35.2689 41.5173 35.3314 41.6044 35.3636C41.6934 35.3939 41.7872 35.4091 41.8857 35.4091C41.9595 35.4091 42.0201 35.4053 42.0675 35.3977C42.1148 35.3883 42.1527 35.3807 42.1811 35.375L42.3175 35.9773C42.272 35.9943 42.2086 36.0114 42.1271 36.0284C42.0457 36.0473 41.9425 36.0568 41.8175 36.0568C41.6281 36.0568 41.4425 36.0161 41.2607 35.9347C41.0807 35.8532 40.9311 35.7292 40.8118 35.5625C40.6944 35.3958 40.6357 35.1856 40.6357 34.9318V30.5909ZM43.2464 36V31.6364H43.8942V32.3182H43.951C44.0419 32.0852 44.1887 31.9044 44.3913 31.7756C44.594 31.6449 44.8374 31.5795 45.1214 31.5795C45.4093 31.5795 45.6489 31.6449 45.8402 31.7756C46.0334 31.9044 46.1839 32.0852 46.2919 32.3182H46.3374C46.4491 32.0928 46.6167 31.9138 46.8402 31.7812C47.0637 31.6468 47.3317 31.5795 47.6442 31.5795C48.0343 31.5795 48.3535 31.7017 48.6016 31.946C48.8497 32.1884 48.9737 32.5663 48.9737 33.0795V36H48.3033V33.0795C48.3033 32.7576 48.2152 32.5275 48.0391 32.3892C47.8629 32.2509 47.6555 32.1818 47.4169 32.1818C47.1101 32.1818 46.8724 32.2746 46.7038 32.4602C46.5353 32.6439 46.451 32.8769 46.451 33.1591V36H45.7692V33.0114C45.7692 32.7633 45.6887 32.5634 45.5277 32.4119C45.3667 32.2585 45.1593 32.1818 44.9055 32.1818C44.7313 32.1818 44.5684 32.2282 44.4169 32.321C44.2673 32.4138 44.1461 32.5426 44.0533 32.7074C43.9624 32.8703 43.9169 33.0587 43.9169 33.2727V36H43.2464ZM50.87 30.1818V36H50.1996V30.1818H50.87ZM29 44.9318C28.7708 44.9318 28.5616 44.8759 28.3722 44.7642C28.1828 44.6506 28.0313 44.4991 27.9176 44.3097C27.8059 44.1203 27.75 43.911 27.75 43.6818C27.75 43.4508 27.8059 43.2415 27.9176 43.054C28.0313 42.8646 28.1828 42.714 28.3722 42.6023C28.5616 42.4886 28.7708 42.4318 29 42.4318C29.2311 42.4318 29.4403 42.4886 29.6278 42.6023C29.8172 42.714 29.9678 42.8646 30.0795 43.054C30.1932 43.2415 30.25 43.4508 30.25 43.6818C30.25 43.911 30.1932 44.1203 30.0795 44.3097C29.9678 44.4991 29.8172 44.6506 29.6278 44.7642C29.4403 44.8759 29.2311 44.9318 29 44.9318ZM37.3864 46.0909C36.9773 46.0909 36.625 45.9943 36.3295 45.8011C36.0341 45.608 35.8068 45.3419 35.6477 45.0028C35.4886 44.6638 35.4091 44.2765 35.4091 43.8409C35.4091 43.3977 35.4905 43.0066 35.6534 42.6676C35.8182 42.3267 36.0473 42.0606 36.3409 41.8693C36.6364 41.6761 36.9811 41.5795 37.375 41.5795C37.6818 41.5795 37.9583 41.6364 38.2045 41.75C38.4508 41.8636 38.6525 42.0227 38.8097 42.2273C38.9669 42.4318 39.0644 42.6705 39.1023 42.9432H38.4318C38.3807 42.7443 38.267 42.5682 38.0909 42.4148C37.9167 42.2595 37.6818 42.1818 37.3864 42.1818C37.125 42.1818 36.8958 42.25 36.6989 42.3864C36.5038 42.5208 36.3513 42.7112 36.2415 42.9574C36.1335 43.2017 36.0795 43.4886 36.0795 43.8182C36.0795 44.1553 36.1326 44.4489 36.2386 44.6989C36.3466 44.9489 36.4981 45.143 36.6932 45.2812C36.8902 45.4195 37.1212 45.4886 37.3864 45.4886C37.5606 45.4886 37.7188 45.4583 37.8608 45.3977C38.0028 45.3371 38.1231 45.25 38.2216 45.1364C38.3201 45.0227 38.3902 44.8864 38.4318 44.7273H39.1023C39.0644 44.9848 38.9706 45.2169 38.821 45.4233C38.6733 45.6278 38.4773 45.7907 38.233 45.9119C37.9905 46.0312 37.7083 46.0909 37.3864 46.0909ZM43.1733 42.6136L42.571 42.7841C42.5331 42.6837 42.4773 42.5862 42.4034 42.4915C42.3314 42.3949 42.233 42.3153 42.108 42.2528C41.983 42.1903 41.8229 42.1591 41.6278 42.1591C41.3608 42.1591 41.1383 42.2206 40.9602 42.3438C40.7841 42.465 40.696 42.6193 40.696 42.8068C40.696 42.9735 40.7566 43.1051 40.8778 43.2017C40.9991 43.2983 41.1884 43.3788 41.446 43.4432L42.0938 43.6023C42.4839 43.697 42.7746 43.8419 42.9659 44.0369C43.1572 44.2301 43.2528 44.4792 43.2528 44.7841C43.2528 45.0341 43.1809 45.2576 43.0369 45.4545C42.8949 45.6515 42.696 45.8068 42.4403 45.9205C42.1847 46.0341 41.8873 46.0909 41.5483 46.0909C41.1032 46.0909 40.7348 45.9943 40.4432 45.8011C40.1515 45.608 39.9669 45.3258 39.8892 44.9545L40.5256 44.7955C40.5862 45.0303 40.7008 45.2064 40.8693 45.3239C41.0398 45.4413 41.2623 45.5 41.5369 45.5C41.8494 45.5 42.0975 45.4337 42.2812 45.3011C42.4669 45.1667 42.5597 45.0057 42.5597 44.8182C42.5597 44.6667 42.5066 44.5398 42.4006 44.4375C42.2945 44.3333 42.1316 44.2557 41.9119 44.2045L41.1847 44.0341C40.785 43.9394 40.4915 43.7926 40.304 43.5938C40.1184 43.393 40.0256 43.142 40.0256 42.8409C40.0256 42.5947 40.0947 42.3769 40.233 42.1875C40.3731 41.9981 40.5634 41.8494 40.804 41.7415C41.0464 41.6335 41.321 41.5795 41.6278 41.5795C42.0597 41.5795 42.3987 41.6742 42.6449 41.8636C42.893 42.053 43.0691 42.303 43.1733 42.6136ZM47.353 42.6136L46.7507 42.7841C46.7128 42.6837 46.657 42.5862 46.5831 42.4915C46.5111 42.3949 46.4126 42.3153 46.2876 42.2528C46.1626 42.1903 46.0026 42.1591 45.8075 42.1591C45.5405 42.1591 45.3179 42.2206 45.1399 42.3438C44.9638 42.465 44.8757 42.6193 44.8757 42.8068C44.8757 42.9735 44.9363 43.1051 45.0575 43.2017C45.1787 43.2983 45.3681 43.3788 45.6257 43.4432L46.2734 43.6023C46.6636 43.697 46.9543 43.8419 47.1456 44.0369C47.3369 44.2301 47.4325 44.4792 47.4325 44.7841C47.4325 45.0341 47.3606 45.2576 47.2166 45.4545C47.0746 45.6515 46.8757 45.8068 46.62 45.9205C46.3643 46.0341 46.067 46.0909 45.728 46.0909C45.2829 46.0909 44.9145 45.9943 44.6229 45.8011C44.3312 45.608 44.1465 45.3258 44.0689 44.9545L44.7053 44.7955C44.7659 45.0303 44.8804 45.2064 45.049 45.3239C45.2195 45.4413 45.442 45.5 45.7166 45.5C46.0291 45.5 46.2772 45.4337 46.4609 45.3011C46.6465 45.1667 46.7393 45.0057 46.7393 44.8182C46.7393 44.6667 46.6863 44.5398 46.5803 44.4375C46.4742 44.3333 46.3113 44.2557 46.0916 44.2045L45.3643 44.0341C44.9647 43.9394 44.6712 43.7926 44.4837 43.5938C44.2981 43.393 44.2053 43.142 44.2053 42.8409C44.2053 42.5947 44.2744 42.3769 44.4126 42.1875C44.5528 41.9981 44.7431 41.8494 44.9837 41.7415C45.2261 41.6335 45.5007 41.5795 45.8075 41.5795C46.2393 41.5795 46.5784 41.6742 46.8246 41.8636C47.0727 42.053 47.2488 42.303 47.353 42.6136ZM29 54.9318C28.7708 54.9318 28.5616 54.8759 28.3722 54.7642C28.1828 54.6506 28.0313 54.4991 27.9176 54.3097C27.8059 54.1203 27.75 53.911 27.75 53.6818C27.75 53.4508 27.8059 53.2415 27.9176 53.054C28.0313 52.8646 28.1828 52.714 28.3722 52.6023C28.5616 52.4886 28.7708 52.4318 29 52.4318C29.2311 52.4318 29.4403 52.4886 29.6278 52.6023C29.8172 52.714 29.9678 52.8646 30.0795 53.054C30.1932 53.2415 30.25 53.4508 30.25 53.6818C30.25 53.911 30.1932 54.1203 30.0795 54.3097C29.9678 54.4991 29.8172 54.6506 29.6278 54.7642C29.4403 54.8759 29.2311 54.9318 29 54.9318ZM35.6136 51.6364H36.2841V56.3182C36.2841 56.5871 36.2377 56.8201 36.1449 57.017C36.054 57.214 35.9157 57.3665 35.7301 57.4744C35.5464 57.5824 35.3144 57.6364 35.0341 57.6364C35.0114 57.6364 34.9886 57.6364 34.9659 57.6364C34.9432 57.6364 34.9205 57.6364 34.8977 57.6364V57.0114C34.9205 57.0114 34.9413 57.0114 34.9602 57.0114C34.9792 57.0114 35 57.0114 35.0227 57.0114C35.2273 57.0114 35.3769 56.9508 35.4716 56.8295C35.5663 56.7102 35.6136 56.5398 35.6136 56.3182V51.6364ZM35.9432 50.9091C35.8125 50.9091 35.6998 50.8646 35.6051 50.7756C35.5123 50.6866 35.4659 50.5795 35.4659 50.4545C35.4659 50.3295 35.5123 50.2225 35.6051 50.1335C35.6998 50.0445 35.8125 50 35.9432 50C36.0739 50 36.1856 50.0445 36.2784 50.1335C36.3731 50.2225 36.4205 50.3295 36.4205 50.4545C36.4205 50.5795 36.3731 50.6866 36.2784 50.7756C36.1856 50.8646 36.0739 50.9091 35.9432 50.9091ZM40.603 52.6136L40.0007 52.7841C39.9628 52.6837 39.907 52.5862 39.8331 52.4915C39.7611 52.3949 39.6626 52.3153 39.5376 52.2528C39.4126 52.1903 39.2526 52.1591 39.0575 52.1591C38.7905 52.1591 38.5679 52.2206 38.3899 52.3438C38.2138 52.465 38.1257 52.6193 38.1257 52.8068C38.1257 52.9735 38.1863 53.1051 38.3075 53.2017C38.4287 53.2983 38.6181 53.3788 38.8757 53.4432L39.5234 53.6023C39.9136 53.697 40.2043 53.8419 40.3956 54.0369C40.5869 54.2301 40.6825 54.4792 40.6825 54.7841C40.6825 55.0341 40.6106 55.2576 40.4666 55.4545C40.3246 55.6515 40.1257 55.8068 39.87 55.9205C39.6143 56.0341 39.317 56.0909 38.978 56.0909C38.5329 56.0909 38.1645 55.9943 37.8729 55.8011C37.5812 55.608 37.3965 55.3258 37.3189 54.9545L37.9553 54.7955C38.0159 55.0303 38.1304 55.2064 38.299 55.3239C38.4695 55.4413 38.692 55.5 38.9666 55.5C39.2791 55.5 39.5272 55.4337 39.7109 55.3011C39.8965 55.1667 39.9893 55.0057 39.9893 54.8182C39.9893 54.6667 39.9363 54.5398 39.8303 54.4375C39.7242 54.3333 39.5613 54.2557 39.3416 54.2045L38.6143 54.0341C38.2147 53.9394 37.9212 53.7926 37.7337 53.5938C37.5481 53.393 37.4553 53.142 37.4553 52.8409C37.4553 52.5947 37.5244 52.3769 37.6626 52.1875C37.8028 51.9981 37.9931 51.8494 38.2337 51.7415C38.4761 51.6335 38.7507 51.5795 39.0575 51.5795C39.4893 51.5795 39.8284 51.6742 40.0746 51.8636C40.3227 52.053 40.4988 52.303 40.603 52.6136Z" fill="black"/>
</svg>
